<svg xmlns="http://www.w3.org/2000/svg" data-name="Layer 1" viewBox="0 0 100 125" x="0px" y="0px"><title>Artboard 20</title><path d="M79,19H33v3c0,5.21-2.33,10.45-6.56,14.74A18.9,18.9,0,0,0,33,67.61V81H79ZM73,75H59V61.11l-2.25-.58A13,13,0,0,1,47,48V45H41v3A19,19,0,0,0,53,65.61V75H39V63.11l-2.25-.58A13,13,0,0,1,27,50a12.81,12.81,0,0,1,3.71-9,27.89,27.89,0,0,0,8.1-16H73Z"/><text x="0" y="115" fill="#000000" font-size="5px" font-weight="bold" font-family="'Helvetica Neue', Helvetica, Arial-Unicode, Arial, Sans-serif">Created by Gregor Cresnar</text><text x="0" y="120" fill="#000000" font-size="5px" font-weight="bold" font-family="'Helvetica Neue', Helvetica, Arial-Unicode, Arial, Sans-serif">from the Noun Project</text></svg>